# This file uses centimeters as units for non-parametric coordinates.

mtllib pellet_test.mtl
g default
v 0.022737 -0.100221 -0.011933
v 0.014587 -0.100221 -0.021133
v 0.003095 -0.100221 -0.025491
v -0.009106 -0.100221 -0.024010
v -0.019220 -0.100221 -0.017028
v -0.024932 -0.100221 -0.006145
v -0.024932 -0.100221 0.006145
v -0.019220 -0.100221 0.017028
v -0.009106 -0.100221 0.024010
v 0.003095 -0.100221 0.025491
v 0.014587 -0.100221 0.021133
v 0.022737 -0.100221 0.011933
v 0.025678 -0.100221 0.000000
v 0.044152 -0.091048 -0.023173
v 0.028326 -0.091048 -0.041037
v 0.006010 -0.091048 -0.049500
v -0.017682 -0.091048 -0.046624
v -0.037324 -0.091048 -0.033066
v -0.048415 -0.091048 -0.011933
v -0.048415 -0.091048 0.011933
v -0.037324 -0.091048 0.033066
v -0.017682 -0.091048 0.046624
v 0.006010 -0.091048 0.049500
v 0.028326 -0.091048 0.041037
v 0.044152 -0.091048 0.023173
v 0.049864 -0.091048 0.000000
v 0.063002 -0.076354 -0.033066
v 0.040419 -0.076354 -0.058557
v 0.008576 -0.076354 -0.070633
v -0.025231 -0.076354 -0.066528
v -0.053258 -0.076354 -0.047182
v -0.069084 -0.076354 -0.017028
v -0.069084 -0.076354 0.017028
v -0.053258 -0.076354 0.047182
v -0.025231 -0.076354 0.066528
v 0.008576 -0.076354 0.070633
v 0.040419 -0.076354 0.058557
v 0.063002 -0.076354 0.033066
v 0.071152 -0.076354 0.000000
v 0.078190 -0.056993 -0.041037
v 0.050163 -0.056993 -0.072673
v 0.010644 -0.056993 -0.087661
v -0.031313 -0.056993 -0.082566
v -0.066097 -0.056993 -0.058557
v -0.085739 -0.056993 -0.021133
v -0.085739 -0.056993 0.021133
v -0.066097 -0.056993 0.058557
v -0.031313 -0.056993 0.082566
v 0.010644 -0.056993 0.087661
v 0.050163 -0.056993 0.072673
v 0.078190 -0.056993 0.041037
v 0.088305 -0.056993 0.000000
v 0.088834 -0.034089 -0.046624
v 0.056991 -0.034089 -0.082566
v 0.012093 -0.034089 -0.099594
v -0.035576 -0.034089 -0.093806
v -0.075095 -0.034089 -0.066528
v -0.097410 -0.034089 -0.024010
v -0.097410 -0.034089 0.024009
v -0.075095 -0.034089 0.066528
v -0.035576 -0.034089 0.093806
v 0.012093 -0.034089 0.099594
v 0.056991 -0.034089 0.082566
v 0.088834 -0.034089 0.046624
v 0.100326 -0.034089 0.000000
v 0.094315 -0.008974 -0.049500
v 0.060508 -0.008974 -0.087661
v 0.012839 -0.008974 -0.105739
v -0.037771 -0.008974 -0.099594
v -0.079728 -0.008974 -0.070633
v -0.103421 -0.008974 -0.025491
v -0.103421 -0.008974 0.025491
v -0.079728 -0.008974 0.070633
v -0.037771 -0.008974 0.099594
v 0.012839 -0.008974 0.105739
v 0.060508 -0.008974 0.087661
v 0.094315 -0.008974 0.049500
v 0.106516 -0.008974 0.000000
v 0.094315 0.016893 -0.049500
v 0.060508 0.016893 -0.087661
v 0.012839 0.016893 -0.105739
v -0.037771 0.016893 -0.099594
v -0.079728 0.016893 -0.070633
v -0.103421 0.016893 -0.025491
v -0.103421 0.016893 0.025491
v -0.079728 0.016893 0.070633
v -0.037771 0.016893 0.099594
v 0.012839 0.016893 0.105739
v 0.060508 0.016893 0.087661
v 0.094315 0.016893 0.049500
v 0.106516 0.016893 0.000000
v 0.088834 0.042008 -0.046624
v 0.056991 0.042008 -0.082566
v 0.012093 0.042008 -0.099594
v -0.035576 0.042008 -0.093806
v -0.075095 0.042008 -0.066528
v -0.097410 0.042008 -0.024010
v -0.097410 0.042008 0.024009
v -0.075095 0.042008 0.066528
v -0.035576 0.042008 0.093806
v 0.012093 0.042008 0.099594
v 0.056991 0.042008 0.082566
v 0.088834 0.042008 0.046624
v 0.100326 0.042008 0.000000
v 0.078190 0.064912 -0.041037
v 0.050163 0.064912 -0.072673
v 0.010644 0.064912 -0.087661
v -0.031313 0.064912 -0.082566
v -0.066097 0.064912 -0.058557
v -0.085739 0.064912 -0.021133
v -0.085739 0.064912 0.021133
v -0.066097 0.064912 0.058557
v -0.031313 0.064912 0.082566
v 0.010644 0.064912 0.087661
v 0.050163 0.064912 0.072673
v 0.078190 0.064912 0.041037
v 0.088305 0.064912 0.000000
v 0.063002 0.084274 -0.033066
v 0.040419 0.084274 -0.058557
v 0.008576 0.084274 -0.070633
v -0.025231 0.084274 -0.066528
v -0.053258 0.084274 -0.047182
v -0.069084 0.084274 -0.017028
v -0.069084 0.084274 0.017028
v -0.053258 0.084274 0.047182
v -0.025231 0.084274 0.066528
v 0.008576 0.084274 0.070633
v 0.040419 0.084274 0.058557
v 0.063002 0.084274 0.033066
v 0.071152 0.084274 0.000000
v 0.044152 0.098968 -0.023173
v 0.028326 0.098968 -0.041037
v 0.006010 0.098968 -0.049500
v -0.017682 0.098968 -0.046624
v -0.037324 0.098968 -0.033066
v -0.048415 0.098968 -0.011933
v -0.048415 0.098968 0.011933
v -0.037324 0.098968 0.033066
v -0.017682 0.098968 0.046624
v 0.006010 0.098968 0.049500
v 0.028326 0.098968 0.041037
v 0.044152 0.098968 0.023173
v 0.049864 0.098968 0.000000
v 0.022737 0.108140 -0.011933
v 0.014587 0.108140 -0.021133
v 0.003095 0.108140 -0.025491
v -0.009106 0.108140 -0.024010
v -0.019220 0.108140 -0.017028
v -0.024932 0.108140 -0.006145
v -0.024932 0.108140 0.006145
v -0.019220 0.108140 0.017028
v -0.009106 0.108140 0.024010
v 0.003095 0.108140 0.025491
v 0.014587 0.108140 0.021133
v 0.022737 0.108140 0.011933
v 0.025678 0.108140 0.000000
v 0.000000 -0.103339 0.000000
v 0.000000 0.111258 0.000000
vt 0.243845 0.277701
vt 0.263409 0.293153
vt 0.291578 0.300437
vt 0.324875 0.301015
vt 0.361349 0.296775
vt 0.399807 0.289334
vt 0.439514 0.279883
vt 0.479766 0.269205
vt 0.519892 0.257723
vt 0.558944 0.245508
vt 0.595686 0.232270
vt 0.628169 0.217355
vt 0.653524 0.199861
vt 0.667331 0.179111
vt 0.187011 0.309215
vt 0.228201 0.335128
vt 0.273141 0.346300
vt 0.318333 0.347460
vt 0.362954 0.342321
vt 0.407054 0.333434
vt 0.450867 0.322427
vt 0.494589 0.310268
vt 0.538333 0.297406
vt 0.582101 0.283786
vt 0.625697 0.268724
vt 0.668439 0.250614
vt 0.708333 0.226526
vt 0.739969 0.192002
vt 0.137792 0.352399
vt 0.202501 0.381813
vt 0.261310 0.392916
vt 0.314752 0.392932
vt 0.364442 0.386404
vt 0.411853 0.376136
vt 0.458051 0.363836
vt 0.503850 0.350502
vt 0.549873 0.336610
vt 0.596806 0.322137
vt 0.645373 0.306400
vt 0.696448 0.287655
vt 0.750683 0.262352
vt 0.807003 0.223934
vt 0.100083 0.406358
vt 0.185820 0.432372
vt 0.254975 0.440307
vt 0.313885 0.437977
vt 0.366727 0.429754
vt 0.416116 0.418206
vt 0.463736 0.404877
vt 0.510775 0.390693
vt 0.558247 0.376150
vt 0.607205 0.361342
vt 0.659159 0.345831
vt 0.716267 0.328283
vt 0.781999 0.305690
vt 0.861682 0.271586
vt 0.076165 0.468477
vt 0.177237 0.485440
vt 0.253031 0.488069
vt 0.315215 0.482676
vt 0.369833 0.472648
vt 0.420338 0.459966
vt 0.468768 0.445860
vt 0.516519 0.431124
vt 0.564835 0.416263
vt 0.615072 0.401535
vt 0.669136 0.386879
vt 0.730209 0.371690
vt 0.803933 0.354278
vt 0.901426 0.330409
vt 0.067486 0.535493
vt 0.176148 0.539609
vt 0.254898 0.535673
vt 0.318441 0.526886
vt 0.373811 0.515092
vt 0.424770 0.501468
vt 0.473541 0.486838
vt 0.521626 0.471829
vt 0.570363 0.456951
vt 0.621233 0.442644
vt 0.676408 0.429286
vt 0.739584 0.417153
vt 0.817654 0.406288
vt 0.925139 0.396030
vt 0.074884 0.603760
vt 0.182350 0.593439
vt 0.260412 0.582522
vt 0.323579 0.570346
vt 0.378752 0.556956
vt 0.429620 0.542627
vt 0.478350 0.527737
vt 0.526440 0.512728
vt 0.575206 0.498111
vt 0.626166 0.484509
vt 0.681540 0.472748
vt 0.745082 0.464006
vt 0.823836 0.460123
vt 0.932502 0.464305
vt 0.098628 0.669362
vt 0.196092 0.645438
vt 0.269799 0.627979
vt 0.330863 0.612749
vt 0.384918 0.598063
vt 0.435148 0.583314
vt 0.483463 0.568443
vt 0.531206 0.553708
vt 0.579637 0.539613
vt 0.630139 0.526954
vt 0.684753 0.516959
vt 0.746936 0.511610
vt 0.822725 0.514292
vt 0.923787 0.531317
vt 0.138396 0.728158
vt 0.218043 0.694010
vt 0.283754 0.671376
vt 0.340847 0.653793
vt 0.392792 0.638254
vt 0.441741 0.623428
vt 0.489204 0.608876
vt 0.536240 0.594693
vt 0.583852 0.581375
vt 0.633236 0.569848
vt 0.686074 0.561657
vt 0.744976 0.559368
vt 0.814120 0.567353
vt 0.899835 0.593421
vt 0.193091 0.775776
vt 0.249374 0.737327
vt 0.303585 0.711993
vt 0.354644 0.693219
vt 0.403197 0.677458
vt 0.450119 0.662969
vt 0.496131 0.649069
vt 0.541921 0.635736
vt 0.588110 0.623447
vt 0.635513 0.613199
vt 0.685193 0.606700
vt 0.738626 0.606753
vt 0.797417 0.617897
vt 0.862097 0.647352
vt 0.260130 0.807669
vt 0.291735 0.773128
vt 0.331608 0.749018
vt 0.374327 0.730887
vt 0.417912 0.715806
vt 0.461661 0.702175
vt 0.505395 0.689307
vt 0.549100 0.677149
vt 0.592904 0.666152
vt 0.636988 0.657281
vt 0.681600 0.652167
vt 0.726774 0.653357
vt 0.771698 0.664560
vt 0.812859 0.690500
vt 0.332760 0.820521
vt 0.346555 0.799764
vt 0.371882 0.782259
vt 0.404360 0.767331
vt 0.441067 0.754082
vt 0.480117 0.741859
vt 0.520207 0.730374
vt 0.560457 0.719699
vt 0.600129 0.710255
vt 0.638586 0.702827
vt 0.675028 0.698605
vt 0.708324 0.699204
vt 0.736465 0.706508
vt 0.756016 0.721974
vt 0.285431 0.255419
vt 0.292543 0.256294
vt 0.309470 0.255902
vt 0.334427 0.253026
vt 0.365321 0.247602
vt 0.400319 0.240146
vt 0.437863 0.231307
vt 0.476494 0.221647
vt 0.514657 0.211559
vt 0.550492 0.201270
vt 0.581660 0.190942
vt 0.605263 0.180953
vt 0.618150 0.172527
vt 0.381947 0.827075
vt 0.394826 0.818645
vt 0.418413 0.808648
vt 0.449560 0.798313
vt 0.485369 0.788020
vt 0.523503 0.777930
vt 0.562105 0.768273
vt 0.599618 0.759442
vt 0.634588 0.751997
vt 0.665456 0.746585
vt 0.690390 0.743720
vt 0.707303 0.743336
vt 0.714409 0.744216
vn 0.273574 -0.951074 -0.143582
vn 0.175511 -0.951074 -0.254272
vn 0.285484 -0.864545 -0.413595
vn 0.444991 -0.864545 -0.233549
vn 0.037242 -0.951074 -0.306711
vn 0.060577 -0.864545 -0.498892
vn -0.109560 -0.951074 -0.288886
vn -0.178209 -0.864545 -0.469898
vn -0.231262 -0.951074 -0.204881
vn -0.376168 -0.864545 -0.333256
vn -0.299986 -0.951074 -0.073940
vn -0.487953 -0.864545 -0.120270
vn -0.299986 -0.951074 0.073940
vn -0.487953 -0.864545 0.120269
vn -0.231263 -0.951074 0.204881
vn -0.376169 -0.864545 0.333256
vn -0.109560 -0.951074 0.288886
vn -0.178209 -0.864545 0.469898
vn 0.037241 -0.951074 0.306711
vn 0.060576 -0.864545 0.498892
vn 0.175511 -0.951074 0.254272
vn 0.285484 -0.864545 0.413595
vn 0.273574 -0.951074 0.143582
vn 0.444991 -0.864545 0.233549
vn 0.308963 -0.951074 0.000000
vn 0.502556 -0.864545 0.000000
vn 0.389344 -0.728180 -0.564062
vn 0.606880 -0.728180 -0.318515
vn 0.082614 -0.728180 -0.680389
vn -0.243041 -0.728180 -0.640848
vn -0.513019 -0.728179 -0.454495
vn -0.665470 -0.728179 -0.164024
vn -0.665470 -0.728179 0.164024
vn -0.513019 -0.728179 0.454495
vn -0.243042 -0.728179 0.640847
vn 0.082614 -0.728180 0.680389
vn 0.389344 -0.728179 0.564062
vn 0.606880 -0.728179 0.318515
vn 0.685386 -0.728179 0.000000
vn 0.474072 -0.550949 -0.686812
vn 0.738948 -0.550949 -0.387829
vn 0.100593 -0.550949 -0.828454
vn -0.295931 -0.550949 -0.780307
vn -0.624661 -0.550949 -0.553402
vn -0.810288 -0.550949 -0.199718
vn -0.810289 -0.550949 0.199718
vn -0.624661 -0.550949 0.553402
vn -0.295932 -0.550949 0.780307
vn 0.100592 -0.550949 0.828454
vn 0.474072 -0.550949 0.686812
vn 0.738947 -0.550949 0.387830
vn 0.834539 -0.550949 0.000000
vn 0.533567 -0.343175 -0.773005
vn 0.831684 -0.343175 -0.436501
vn 0.113217 -0.343175 -0.932423
vn -0.333070 -0.343175 -0.878234
vn -0.703055 -0.343175 -0.622852
vn -0.911978 -0.343175 -0.224783
vn -0.911978 -0.343175 0.224782
vn -0.703055 -0.343175 0.622852
vn -0.333070 -0.343175 0.878234
vn 0.113217 -0.343175 0.932423
vn 0.533567 -0.343175 0.773005
vn 0.831684 -0.343175 0.436501
vn 0.939272 -0.343175 0.000000
vn 0.564196 -0.116520 -0.817378
vn 0.879425 -0.116520 -0.461557
vn 0.119716 -0.116520 -0.985947
vn -0.352189 -0.116520 -0.928647
vn -0.743412 -0.116520 -0.658606
vn -0.964328 -0.116520 -0.237686
vn -0.964328 -0.116520 0.237685
vn -0.743412 -0.116520 0.658606
vn -0.352190 -0.116520 0.928647
vn 0.119716 -0.116520 0.985947
vn 0.564195 -0.116520 0.817378
vn 0.879425 -0.116520 0.461558
vn 0.993188 -0.116520 0.000000
vn 0.564196 0.116520 -0.817378
vn 0.879425 0.116520 -0.461557
vn 0.119716 0.116520 -0.985947
vn -0.352189 0.116520 -0.928647
vn -0.743412 0.116520 -0.658606
vn -0.964328 0.116520 -0.237686
vn -0.964328 0.116520 0.237685
vn -0.743412 0.116520 0.658606
vn -0.352190 0.116520 0.928647
vn 0.119716 0.116520 0.985947
vn 0.564195 0.116520 0.817378
vn 0.879425 0.116520 0.461558
vn 0.993188 0.116520 0.000000
vn 0.533567 0.343175 -0.773005
vn 0.831684 0.343175 -0.436501
vn 0.113217 0.343175 -0.932423
vn -0.333070 0.343175 -0.878234
vn -0.703055 0.343175 -0.622852
vn -0.911978 0.343175 -0.224783
vn -0.911978 0.343175 0.224782
vn -0.703055 0.343175 0.622852
vn -0.333070 0.343175 0.878234
vn 0.113217 0.343175 0.932423
vn 0.533567 0.343175 0.773005
vn 0.831684 0.343175 0.436501
vn 0.939272 0.343175 0.000000
vn 0.474072 0.550949 -0.686812
vn 0.738947 0.550949 -0.387829
vn 0.100593 0.550949 -0.828454
vn -0.295931 0.550949 -0.780307
vn -0.624661 0.550949 -0.553402
vn -0.810289 0.550949 -0.199718
vn -0.810289 0.550949 0.199718
vn -0.624661 0.550949 0.553402
vn -0.295932 0.550949 0.780307
vn 0.100592 0.550949 0.828454
vn 0.474072 0.550949 0.686812
vn 0.738947 0.550949 0.387830
vn 0.834539 0.550949 0.000000
vn 0.389344 0.728180 -0.564062
vn 0.606880 0.728180 -0.318515
vn 0.082614 0.728180 -0.680389
vn -0.243041 0.728180 -0.640848
vn -0.513019 0.728179 -0.454495
vn -0.665470 0.728179 -0.164024
vn -0.665470 0.728179 0.164024
vn -0.513019 0.728179 0.454495
vn -0.243042 0.728179 0.640847
vn 0.082614 0.728180 0.680389
vn 0.389344 0.728179 0.564062
vn 0.606880 0.728180 0.318515
vn 0.685386 0.728179 0.000000
vn 0.285484 0.864545 -0.413595
vn 0.444991 0.864545 -0.233549
vn 0.060577 0.864545 -0.498892
vn -0.178209 0.864545 -0.469898
vn -0.376168 0.864545 -0.333256
vn -0.487953 0.864545 -0.120270
vn -0.487953 0.864545 0.120269
vn -0.376169 0.864545 0.333256
vn -0.178209 0.864545 0.469898
vn 0.060576 0.864545 0.498892
vn 0.285484 0.864545 0.413595
vn 0.444991 0.864545 0.233549
vn 0.502556 0.864545 0.000000
vn 0.175511 0.951074 -0.254272
vn 0.273574 0.951074 -0.143583
vn 0.037241 0.951074 -0.306711
vn -0.109560 0.951074 -0.288886
vn -0.231262 0.951074 -0.204881
vn -0.299985 0.951074 -0.073940
vn -0.299986 0.951074 0.073940
vn -0.231263 0.951074 0.204881
vn -0.109560 0.951074 0.288886
vn 0.037241 0.951074 0.306711
vn 0.175511 0.951074 0.254272
vn 0.273574 0.951074 0.143582
vn 0.308963 0.951074 0.000000
vn -0.000000 -1.000000 -0.000000
vn -0.000000 1.000000 0.000000
s 1
g pSphere1
usemtl phong1SG
f 1/1/1 2/2/2 15/16/3 14/15/4
f 2/2/2 3/3/5 16/17/6 15/16/3
f 3/3/5 4/4/7 17/18/8 16/17/6
f 4/4/7 5/5/9 18/19/10 17/18/8
f 5/5/9 6/6/11 19/20/12 18/19/10
f 6/6/11 7/7/13 20/21/14 19/20/12
f 7/7/13 8/8/15 21/22/16 20/21/14
f 8/8/15 9/9/17 22/23/18 21/22/16
f 9/9/17 10/10/19 23/24/20 22/23/18
f 10/10/19 11/11/21 24/25/22 23/24/20
f 11/11/21 12/12/23 25/26/24 24/25/22
f 12/12/23 13/13/25 26/27/26 25/26/24
f 13/13/25 1/14/1 14/28/4 26/27/26
f 14/15/4 15/16/3 28/30/27 27/29/28
f 15/16/3 16/17/6 29/31/29 28/30/27
f 16/17/6 17/18/8 30/32/30 29/31/29
f 17/18/8 18/19/10 31/33/31 30/32/30
f 18/19/10 19/20/12 32/34/32 31/33/31
f 19/20/12 20/21/14 33/35/33 32/34/32
f 20/21/14 21/22/16 34/36/34 33/35/33
f 21/22/16 22/23/18 35/37/35 34/36/34
f 22/23/18 23/24/20 36/38/36 35/37/35
f 23/24/20 24/25/22 37/39/37 36/38/36
f 24/25/22 25/26/24 38/40/38 37/39/37
f 25/26/24 26/27/26 39/41/39 38/40/38
f 26/27/26 14/28/4 27/42/28 39/41/39
f 27/29/28 28/30/27 41/44/40 40/43/41
f 28/30/27 29/31/29 42/45/42 41/44/40
f 29/31/29 30/32/30 43/46/43 42/45/42
f 30/32/30 31/33/31 44/47/44 43/46/43
f 31/33/31 32/34/32 45/48/45 44/47/44
f 32/34/32 33/35/33 46/49/46 45/48/45
f 33/35/33 34/36/34 47/50/47 46/49/46
f 34/36/34 35/37/35 48/51/48 47/50/47
f 35/37/35 36/38/36 49/52/49 48/51/48
f 36/38/36 37/39/37 50/53/50 49/52/49
f 37/39/37 38/40/38 51/54/51 50/53/50
f 38/40/38 39/41/39 52/55/52 51/54/51
f 39/41/39 27/42/28 40/56/41 52/55/52
f 40/43/41 41/44/40 54/58/53 53/57/54
f 41/44/40 42/45/42 55/59/55 54/58/53
f 42/45/42 43/46/43 56/60/56 55/59/55
f 43/46/43 44/47/44 57/61/57 56/60/56
f 44/47/44 45/48/45 58/62/58 57/61/57
f 45/48/45 46/49/46 59/63/59 58/62/58
f 46/49/46 47/50/47 60/64/60 59/63/59
f 47/50/47 48/51/48 61/65/61 60/64/60
f 48/51/48 49/52/49 62/66/62 61/65/61
f 49/52/49 50/53/50 63/67/63 62/66/62
f 50/53/50 51/54/51 64/68/64 63/67/63
f 51/54/51 52/55/52 65/69/65 64/68/64
f 52/55/52 40/56/41 53/70/54 65/69/65
f 53/57/54 54/58/53 67/72/66 66/71/67
f 54/58/53 55/59/55 68/73/68 67/72/66
f 55/59/55 56/60/56 69/74/69 68/73/68
f 56/60/56 57/61/57 70/75/70 69/74/69
f 57/61/57 58/62/58 71/76/71 70/75/70
f 58/62/58 59/63/59 72/77/72 71/76/71
f 59/63/59 60/64/60 73/78/73 72/77/72
f 60/64/60 61/65/61 74/79/74 73/78/73
f 61/65/61 62/66/62 75/80/75 74/79/74
f 62/66/62 63/67/63 76/81/76 75/80/75
f 63/67/63 64/68/64 77/82/77 76/81/76
f 64/68/64 65/69/65 78/83/78 77/82/77
f 65/69/65 53/70/54 66/84/67 78/83/78
f 66/71/67 67/72/66 80/86/79 79/85/80
f 67/72/66 68/73/68 81/87/81 80/86/79
f 68/73/68 69/74/69 82/88/82 81/87/81
f 69/74/69 70/75/70 83/89/83 82/88/82
f 70/75/70 71/76/71 84/90/84 83/89/83
f 71/76/71 72/77/72 85/91/85 84/90/84
f 72/77/72 73/78/73 86/92/86 85/91/85
f 73/78/73 74/79/74 87/93/87 86/92/86
f 74/79/74 75/80/75 88/94/88 87/93/87
f 75/80/75 76/81/76 89/95/89 88/94/88
f 76/81/76 77/82/77 90/96/90 89/95/89
f 77/82/77 78/83/78 91/97/91 90/96/90
f 78/83/78 66/84/67 79/98/80 91/97/91
f 79/85/80 80/86/79 93/100/92 92/99/93
f 80/86/79 81/87/81 94/101/94 93/100/92
f 81/87/81 82/88/82 95/102/95 94/101/94
f 82/88/82 83/89/83 96/103/96 95/102/95
f 83/89/83 84/90/84 97/104/97 96/103/96
f 84/90/84 85/91/85 98/105/98 97/104/97
f 85/91/85 86/92/86 99/106/99 98/105/98
f 86/92/86 87/93/87 100/107/100 99/106/99
f 87/93/87 88/94/88 101/108/101 100/107/100
f 88/94/88 89/95/89 102/109/102 101/108/101
f 89/95/89 90/96/90 103/110/103 102/109/102
f 90/96/90 91/97/91 104/111/104 103/110/103
f 91/97/91 79/98/80 92/112/93 104/111/104
f 92/99/93 93/100/92 106/114/105 105/113/106
f 93/100/92 94/101/94 107/115/107 106/114/105
f 94/101/94 95/102/95 108/116/108 107/115/107
f 95/102/95 96/103/96 109/117/109 108/116/108
f 96/103/96 97/104/97 110/118/110 109/117/109
f 97/104/97 98/105/98 111/119/111 110/118/110
f 98/105/98 99/106/99 112/120/112 111/119/111
f 99/106/99 100/107/100 113/121/113 112/120/112
f 100/107/100 101/108/101 114/122/114 113/121/113
f 101/108/101 102/109/102 115/123/115 114/122/114
f 102/109/102 103/110/103 116/124/116 115/123/115
f 103/110/103 104/111/104 117/125/117 116/124/116
f 104/111/104 92/112/93 105/126/106 117/125/117
f 105/113/106 106/114/105 119/128/118 118/127/119
f 106/114/105 107/115/107 120/129/120 119/128/118
f 107/115/107 108/116/108 121/130/121 120/129/120
f 108/116/108 109/117/109 122/131/122 121/130/121
f 109/117/109 110/118/110 123/132/123 122/131/122
f 110/118/110 111/119/111 124/133/124 123/132/123
f 111/119/111 112/120/112 125/134/125 124/133/124
f 112/120/112 113/121/113 126/135/126 125/134/125
f 113/121/113 114/122/114 127/136/127 126/135/126
f 114/122/114 115/123/115 128/137/128 127/136/127
f 115/123/115 116/124/116 129/138/129 128/137/128
f 116/124/116 117/125/117 130/139/130 129/138/129
f 117/125/117 105/126/106 118/140/119 130/139/130
f 118/127/119 119/128/118 132/142/131 131/141/132
f 119/128/118 120/129/120 133/143/133 132/142/131
f 120/129/120 121/130/121 134/144/134 133/143/133
f 121/130/121 122/131/122 135/145/135 134/144/134
f 122/131/122 123/132/123 136/146/136 135/145/135
f 123/132/123 124/133/124 137/147/137 136/146/136
f 124/133/124 125/134/125 138/148/138 137/147/137
f 125/134/125 126/135/126 139/149/139 138/148/138
f 126/135/126 127/136/127 140/150/140 139/149/139
f 127/136/127 128/137/128 141/151/141 140/150/140
f 128/137/128 129/138/129 142/152/142 141/151/141
f 129/138/129 130/139/130 143/153/143 142/152/142
f 130/139/130 118/140/119 131/154/132 143/153/143
f 131/141/132 132/142/131 145/156/144 144/155/145
f 132/142/131 133/143/133 146/157/146 145/156/144
f 133/143/133 134/144/134 147/158/147 146/157/146
f 134/144/134 135/145/135 148/159/148 147/158/147
f 135/145/135 136/146/136 149/160/149 148/159/148
f 136/146/136 137/147/137 150/161/150 149/160/149
f 137/147/137 138/148/138 151/162/151 150/161/150
f 138/148/138 139/149/139 152/163/152 151/162/151
f 139/149/139 140/150/140 153/164/153 152/163/152
f 140/150/140 141/151/141 154/165/154 153/164/153
f 141/151/141 142/152/142 155/166/155 154/165/154
f 142/152/142 143/153/143 156/167/156 155/166/155
f 143/153/143 131/154/132 144/168/145 156/167/156
f 2/2/2 1/1/1 157/169/157
f 3/3/5 2/2/2 157/170/157
f 4/4/7 3/3/5 157/171/157
f 5/5/9 4/4/7 157/172/157
f 6/6/11 5/5/9 157/173/157
f 7/7/13 6/6/11 157/174/157
f 8/8/15 7/7/13 157/175/157
f 9/9/17 8/8/15 157/176/157
f 10/10/19 9/9/17 157/177/157
f 11/11/21 10/10/19 157/178/157
f 12/12/23 11/11/21 157/179/157
f 13/13/25 12/12/23 157/180/157
f 1/14/1 13/13/25 157/181/157
f 144/155/145 145/156/144 158/182/158
f 145/156/144 146/157/146 158/183/158
f 146/157/146 147/158/147 158/184/158
f 147/158/147 148/159/148 158/185/158
f 148/159/148 149/160/149 158/186/158
f 149/160/149 150/161/150 158/187/158
f 150/161/150 151/162/151 158/188/158
f 151/162/151 152/163/152 158/189/158
f 152/163/152 153/164/153 158/190/158
f 153/164/153 154/165/154 158/191/158
f 154/165/154 155/166/155 158/192/158
f 155/166/155 156/167/156 158/193/158
f 156/167/156 144/168/145 158/194/158
